<svg width="17" height="28" viewBox="0 0 17 28" fill="none" xmlns="http://www.w3.org/2000/svg">
<path d="M13.076 11.0491C12.5955 8.10425 12.1144 5.15519 11.6339 2.21031C11.4619 1.15648 10.9809 0.473807 9.77988 0.665482C8.60787 0.852431 7.50196 1.07992 7.86832 2.72635C8.60648 6.05253 9.35291 9.37737 10.0497 12.7103C10.2392 13.6116 10.2522 14.5503 10.3844 15.4652C10.5438 16.5723 10.974 17.49 12.2766 17.4784C13.6475 17.4685 14.3286 16.6946 14.1651 15.2503C14.0079 13.8177 13.7175 12.4027 13.4851 10.9781C13.3485 11.0004 13.2119 11.0227 13.0753 11.045L13.076 11.0491Z" fill="#EB687D"/>
<path d="M5.53929 12.2021C5.06129 9.27248 4.59021 6.33734 4.10079 3.40956C3.89292 2.15946 2.91363 1.3791 1.94945 1.64958C0.783173 1.9748 0.138346 3.12463 0.384638 4.29881C1.09999 7.72509 1.8008 11.1581 2.47116 14.5961C2.66971 15.6214 3.00256 16.4637 4.08022 16.4097C5.21568 16.3507 6.09785 15.8411 6.00005 14.3555C5.95167 13.6278 5.77559 12.9079 5.6573 12.1829C5.61923 12.1891 5.57736 12.1959 5.53929 12.2021Z" fill="#EB687D"/>
<path d="M6.10321 26.9993C7.57337 26.7594 9.15644 23.73 8.412 22.4202C8.18534 22.0221 7.446 21.6077 7.06311 21.7006C6.23743 21.9006 5.31743 22.2595 4.75418 22.8735C4.2499 23.4169 4.07336 24.3679 3.9279 25.1791C3.68179 26.5678 4.55296 27.2566 6.1039 27.0035L6.10321 26.9993Z" fill="#EB687D"/>
<path d="M14.139 25.9943C15.2026 25.7858 16.0586 24.2792 15.758 23.0578C15.4705 21.8912 14.6485 21.6398 13.6261 21.8417C12.0349 22.1538 11.1198 23.0391 11.3417 24.0368C11.6024 25.1947 13.0508 26.2069 14.139 25.9943Z" fill="#EB687D"/>
</svg>
